<svg xmlns="http://www.w3.org/2000/svg" viewBox="0 0 64 64" width="64" height="64">
  <defs>
    <linearGradient id="b" x1="0" y1="0" x2="0" y2="1">
      <stop offset="0" stop-color="#a87a4a"/>
      <stop offset="1" stop-color="#7c5631"/>
    </linearGradient>
  </defs>
  <circle cx="32" cy="32" r="32" fill="#efe7da"/>
  <path d="M32 9c12 0 19 9 19 22 0 14-9 24-19 24S13 45 13 31C13 18 20 9 32 9z" fill="url(#b)"/>
  <!-- touffes -->
  <path d="M16 16c3-3 8-2 9 2-4 0-7 1-9 4-1-2-1-4 0-6z" fill="#6b4a2a"/>
  <path d="M48 16c-3-3-8-2-9 2 4 0 7 1 9 4 1-2 1-4 0-6z" fill="#6b4a2a"/>
  <!-- lunettes -->
  <circle cx="24" cy="30" r="10" fill="#f4ead8"/>
  <circle cx="40" cy="30" r="10" fill="#f4ead8"/>
  <circle cx="24" cy="30" r="10" fill="none" stroke="#2b2b2b" stroke-width="2.4"/>
  <circle cx="40" cy="30" r="10" fill="none" stroke="#2b2b2b" stroke-width="2.4"/>
  <path d="M33.5 28h-3" stroke="#2b2b2b" stroke-width="2.4" stroke-linecap="round"/>
  <!-- yeux -->
  <circle cx="24" cy="31" r="4.2" fill="#f2b134"/>
  <circle cx="40" cy="31" r="4.2" fill="#f2b134"/>
  <circle cx="24" cy="31" r="2" fill="#1c1c1c"/>
  <circle cx="40" cy="31" r="2" fill="#1c1c1c"/>
  <!-- bec -->
  <path d="M32 35l3 5h-6l3-5z" fill="#e0922f"/>
  <!-- plumes du ventre -->
  <g fill="#caa777" opacity="0.9">
    <circle cx="26" cy="46" r="2.4"/>
    <circle cx="32" cy="48" r="2.4"/>
    <circle cx="38" cy="46" r="2.4"/>
  </g>
</svg>
